<svg width="315" height="330" viewBox="0 0 315 330" fill="none" xmlns="http://www.w3.org/2000/svg">
<g clip-path="url(#clip0_11_66375)">
<path d="M0 140.916C0 217.281 97.0862 282.984 188.143 282.984C279.199 282.984 314.969 219.724 314.969 143.367C314.969 67.0097 229.912 5.13379 138.825 5.13379C47.7373 5.13379 0 64.5588 0 140.916Z" fill="#FFDEDF"/>
<path d="M48.7551 147.643L41.2371 164.83C41.2371 164.83 25.3761 156.712 28.1751 162.858C30.9741 169.005 34.4362 178.198 34.4362 178.198C34.4362 178.198 20.3487 182.373 23.8185 184.151C27.2884 185.93 38.176 189.27 38.176 189.27C38.176 189.27 32.2001 209.727 37.0579 205.506C41.9157 201.284 47.7681 194.164 47.7681 194.164C47.7681 194.164 74.6093 206.418 70.3221 201.748C66.0349 197.078 57.9386 184.863 57.9386 184.863C57.9386 184.863 80.4463 170.296 76.2054 168.881C71.9645 167.466 55.5637 169.655 55.5637 169.655C55.5637 169.655 49.557 145.849 48.7551 147.643Z" fill="white"/>
<path d="M282.214 129.296C281.373 129.829 264.549 140.978 264.549 140.978C264.549 140.978 254.463 123.505 253.36 131.058C252.258 138.612 249.913 149.467 249.913 149.467C249.913 149.467 233.991 144.759 236.196 148.586C238.401 152.413 246.69 162.286 246.69 162.286C246.69 162.286 228.493 178.028 235.664 177.03C242.835 176.033 252.79 172.855 252.79 172.855C252.79 172.855 270.763 201.014 269.553 193.939C268.342 186.865 268.134 170.288 268.134 170.288C268.134 170.288 298.406 170.288 295.268 166.353C292.13 162.418 275.174 154.416 275.174 154.416C275.174 154.416 284.064 128.066 282.214 129.296Z" fill="white"/>
<path d="M62.5728 104.957C62.5728 104.957 72.1881 137.816 75.7968 139.053C79.4054 140.29 112.77 134.043 113.579 130.765C114.69 126.257 102.784 97.0858 98.7748 96.042C94.426 94.9055 63.3593 101.238 62.5728 104.957Z" fill="white"/>
<path d="M77.4161 139.749C76.8118 139.776 76.2067 139.716 75.6195 139.571C71.9337 138.311 63.6755 110.639 62.0485 105.103V104.972V104.84C62.1642 104.284 62.65 103.758 63.5907 103.186C69.4354 99.5675 94.8193 94.426 98.9368 95.5161C103.563 96.7223 115.191 126.574 114.135 130.896C114.011 131.391 113.541 131.855 112.639 132.349C106.894 135.481 84.51 139.749 77.4161 139.749ZM63.1512 104.956C66.8446 117.574 73.553 137.7 75.9742 138.527C79.0585 139.578 106.223 134.592 112.084 131.383C112.97 130.888 113.047 130.61 113.047 130.61C114.15 126.087 102.029 97.4413 98.6284 96.5444C95.2279 95.6476 70.1602 100.356 64.1304 104.098C63.7362 104.299 63.3993 104.597 63.1512 104.964V104.956Z" fill="white"/>
<path d="M67.1222 107.268C67.1222 107.268 73.8383 130.278 76.3751 132.195C78.9119 134.112 109.246 128.979 109.655 125.6C110.063 122.221 100.695 101.555 98.4664 100.519C96.238 99.4826 66.567 105.297 67.1222 107.268Z" fill="#FFDEDF"/>
<path d="M80.4464 132.705C80.4464 132.705 80.5003 124.44 89.414 121.239C98.3276 118.038 104.157 128.584 104.157 128.584C104.157 128.584 90.8944 132.434 80.4464 132.705Z" fill="white"/>
<path d="M95.6597 113.562C95.2896 118.031 90.5398 120.435 86.0829 120.056C81.6261 119.677 79.1433 116.678 79.5211 112.209C79.7 110.063 80.7218 108.076 82.3616 106.686C84.0014 105.295 86.125 104.615 88.2651 104.794C90.4052 104.974 92.3866 105.998 93.7733 107.642C95.1601 109.287 95.8386 111.416 95.6597 113.562Z" fill="white"/>
<path d="M79.4671 132.574C83.7505 132.392 88.0166 131.919 92.2361 131.159C97.426 130.403 102.519 129.086 107.426 127.231C107.904 127.038 107.696 126.241 107.21 126.458C102.426 128.269 97.4634 129.565 92.4058 130.324C88.1325 131.119 83.8092 131.615 79.4671 131.808C78.9428 131.808 78.9428 132.643 79.4671 132.628V132.574Z" fill="#FFDEDF"/>
<path d="M273.624 214.853C273.624 214.853 265.505 242.548 262.482 243.592C259.459 244.636 231.323 239.37 230.644 236.633C229.711 232.837 239.774 208.251 243.12 207.369C246.783 206.38 272.969 211.722 273.624 214.853Z" fill="white"/>
<path d="M261.133 244.264C255.141 244.264 236.242 240.661 231.415 238.017C230.644 237.584 230.22 237.174 230.112 236.734C229.218 233.084 239.072 207.841 242.982 206.813C246.575 205.869 267.733 210.122 272.845 213.292C273.616 213.779 274.056 214.243 274.156 214.737V214.869L274.118 215.008C272.753 219.647 265.775 243.035 262.629 244.11C262.139 244.23 261.636 244.282 261.133 244.264ZM244.339 207.779C243.976 207.768 243.614 207.799 243.259 207.872C240.406 208.645 230.243 232.675 231.169 236.479C231.94 238.473 258.989 244.21 262.305 243.081C264.209 242.432 269.715 226.265 273.046 214.884C272.839 214.612 272.576 214.388 272.275 214.227C267.617 211.336 249.528 207.779 244.339 207.779Z" fill="white"/>
<path d="M269.792 216.802C269.792 216.802 264.132 236.193 262.012 237.809C259.891 239.424 234.307 235.102 233.968 232.25C233.628 229.397 241.516 211.993 243.39 211.111C245.264 210.23 270.285 215.139 269.792 216.802Z" fill="#FFDEDF"/>
<path d="M258.565 238.257C258.421 236.07 257.622 233.977 256.272 232.253C254.923 230.528 253.085 229.252 251.001 228.592C243.49 225.894 238.579 234.778 238.579 234.778C238.579 234.778 249.759 238.017 258.565 238.257Z" fill="white"/>
<path d="M245.742 222.106C246.058 225.879 250.06 227.896 253.815 227.587C257.57 227.278 259.66 224.734 259.344 220.969C259.269 220.073 259.02 219.201 258.609 218.403C258.199 217.604 257.635 216.894 256.951 216.313C256.267 215.733 255.475 215.293 254.622 215.02C253.768 214.746 252.869 214.643 251.976 214.718C251.083 214.793 250.213 215.043 249.417 215.455C248.62 215.866 247.912 216.431 247.333 217.117C246.754 217.803 246.316 218.597 246.043 219.453C245.77 220.309 245.668 221.21 245.742 222.106Z" fill="white"/>
<path d="M259.39 237.376C255.734 237.212 252.094 236.796 248.495 236.131C244.236 235.49 240.056 234.399 236.026 232.876C235.541 232.675 235.325 233.471 235.81 233.649C239.948 235.214 244.242 236.323 248.618 236.958C252.184 237.614 255.791 238.022 259.413 238.18C259.937 238.18 259.937 237.406 259.413 237.36L259.39 237.376Z" fill="#FFDEDF"/>
<path d="M158.998 44.598C164.743 37.4439 163.616 26.9748 156.481 21.2145C149.347 15.4543 138.906 16.5842 133.161 23.7383C127.416 30.8924 128.543 41.3615 135.678 47.1218C142.813 52.882 153.254 51.7521 158.998 44.598Z" fill="white"/>
<path d="M141.454 34.3902C142.241 34.8254 143.116 35.0792 144.013 35.1332C144.911 35.1872 145.809 35.04 146.642 34.7024C147.476 34.3647 148.224 33.8451 148.833 33.1813C149.441 32.5174 149.894 31.726 150.159 30.8646C150.406 30.0914 149.188 29.7512 148.933 30.5244C148.728 31.1544 148.397 31.736 147.961 32.2343C147.525 32.7326 146.993 33.1372 146.397 33.4237C145.718 33.7371 144.976 33.8884 144.23 33.8656C143.483 33.8428 142.752 33.6465 142.094 33.2923C141.369 32.9057 140.729 34.0036 141.454 34.3902Z" fill="#FFDEDF"/>
<path d="M139.457 32.7355H139.519C139.604 32.7416 139.69 32.7228 139.765 32.6814C139.84 32.6519 139.909 32.6071 139.966 32.5499C140.023 32.4927 140.067 32.4243 140.097 32.3489C140.14 32.2737 140.161 32.1881 140.159 32.1015V31.9314C140.13 31.8243 140.071 31.7277 139.989 31.6531L139.866 31.5526C139.768 31.4941 139.655 31.4646 139.542 31.4675H139.48C139.394 31.4579 139.307 31.4769 139.233 31.5217C139.156 31.5494 139.086 31.5935 139.028 31.6509C138.969 31.7082 138.923 31.7775 138.894 31.8541C138.857 31.9312 138.839 32.016 138.84 32.1015V32.2716C138.869 32.3768 138.925 32.4727 139.002 32.55L139.133 32.6505C139.232 32.7055 139.344 32.7347 139.457 32.7355Z" fill="#FFDEDF"/>
<path d="M149.442 28.2281C149.599 28.2108 149.744 28.1361 149.849 28.0184C149.954 27.9007 150.012 27.7483 150.012 27.5902C150.012 27.4322 149.954 27.2798 149.849 27.1621C149.744 27.0444 149.599 26.9697 149.442 26.9524C149.286 26.9697 149.141 27.0444 149.036 27.1621C148.931 27.2798 148.872 27.4322 148.872 27.5902C148.872 27.7483 148.931 27.9007 149.036 28.0184C149.141 28.1361 149.286 28.2108 149.442 28.2281Z" fill="#FFDEDF"/>
<path d="M222.926 55.0799L226.781 43.3047L231.161 55.0799C231.161 55.0799 239.913 56.5721 240.013 57.3994C240.113 58.2267 231.639 60.7008 231.639 60.7008C231.639 60.7008 228.084 72.1203 226.781 69.5303C225.478 66.9402 224.221 61.2265 224.221 61.2265C224.221 61.2265 213.203 58.907 213.203 57.8014C213.203 56.6958 222.926 55.0799 222.926 55.0799Z" fill="white"/>
<path d="M85.3812 226.953L88.2419 218.224L91.4882 226.953C91.4882 226.953 97.9806 228.059 98.05 228.67C98.1194 229.281 91.8429 231.121 91.8429 231.121C91.8429 231.121 89.2058 239.587 88.2419 237.669C87.4268 235.668 86.7895 233.598 86.3374 231.484C86.3374 231.484 78.1717 229.783 78.1717 228.94C78.1717 228.098 85.3812 226.953 85.3812 226.953Z" fill="white"/>
<path d="M62.7502 68.7184L65.7573 59.541L69.1655 68.7184C69.1655 68.7184 75.9895 69.8782 76.0666 70.5121C76.1437 71.1461 69.5433 73.0945 69.5433 73.0945C69.5433 73.0945 66.7675 81.9858 65.7573 79.9756C64.9006 77.8798 64.2323 75.7115 63.7603 73.4965C63.7603 73.4965 55.1705 71.7105 55.1705 70.8291C55.1705 69.9477 62.7502 68.7184 62.7502 68.7184Z" fill="white"/>
<path d="M258.565 87.0347C258.75 84.5142 260.377 81.9086 263.554 82.2333C265.019 82.4059 266.359 83.1469 267.286 84.2977C269.298 86.7254 269.499 89.9649 269.645 93.0344C270.281 90.9586 271.18 88.9733 272.321 87.1274C273.863 84.8853 276.246 83.0838 279.091 83.2616C279.748 83.3045 280.389 83.4816 280.975 83.7821C281.561 84.0826 282.08 84.5001 282.499 85.009C284.311 87.3285 283.27 90.2897 282.098 92.7406C279.438 98.2996 275.228 103.766 271.072 108.575C270.843 108.839 270.556 109.047 270.234 109.183C269.912 109.318 269.563 109.376 269.214 109.354C268.865 109.331 268.527 109.228 268.224 109.053C267.922 108.878 267.664 108.635 267.471 108.343C264.387 103.65 260.855 97.3331 259.336 91.9906C258.792 90.3966 258.531 88.7192 258.565 87.0347Z" fill="white"/>
<path d="M134.63 51.2605C134.252 44.302 130.296 38.9363 121.375 37.7224C121.375 37.7224 111.112 36.7096 104.905 36.5472C98.6977 36.3849 91.92 37.9389 88.1186 42.8562C85.2193 46.6215 84.6024 51.6239 84.2015 56.3633C83.9008 59.8889 83.6772 63.4687 84.3711 66.9401C85.0651 70.4116 86.8077 73.7981 89.7301 75.7696C92.9686 77.9654 97.1093 78.1432 101.011 78.2437L107.326 78.4138C107.843 82.2796 114.05 89.2381 116.386 86.6016C117.273 85.5965 115.561 80.5246 114.898 78.6071L121.283 78.7772C125.007 78.8777 129.201 78.7772 131.769 76.0789C133.55 74.2001 134.16 69.9555 134.614 67.404L134.63 51.2605Z" fill="#8D010D"/>
<path d="M121.313 51.7244C121.514 49.4049 120.388 46.7298 117.404 46.5597C116.028 46.5072 114.686 46.9955 113.664 47.9205C111.451 49.8688 110.788 52.83 110.21 55.6521C109.928 53.6428 109.389 51.6783 108.606 49.807C107.527 47.4875 105.576 45.5005 102.908 45.284C102.297 45.2259 101.681 45.2941 101.097 45.4843C100.514 45.6744 99.9752 45.9826 99.5151 46.3896C97.5026 48.2452 98.0269 51.1523 98.744 53.5955C100.394 59.1158 103.471 64.7754 106.609 69.8318C106.782 70.1103 107.016 70.3449 107.294 70.5175C107.572 70.69 107.886 70.7958 108.212 70.8265C108.537 70.8572 108.865 70.812 109.17 70.6944C109.476 70.5769 109.75 70.3901 109.971 70.1488C113.518 66.283 117.682 60.9559 119.864 56.2319C120.606 54.8259 121.097 53.3003 121.313 51.7244Z" fill="white"/>
<path d="M156.081 86.7407C163.283 87.6763 172.806 93.0033 177.425 98.6087C181.511 103.572 184.488 109.325 187.348 115.077C195.422 131.313 203.155 148.261 216.164 160.879C221.654 166.198 228.3 171.092 230.49 178.43C231.857 183.428 231.203 188.765 228.67 193.282C223.782 202.289 212.216 207.029 202.454 204.052C197.912 202.668 193.895 199.869 189.345 198.524C180.972 196.042 172.058 198.733 163.638 201.037C155.218 203.341 145.841 205.158 138.053 201.192C129.333 196.746 128.855 196.042 126.248 186.996C123.079 175.963 121.915 161.845 120.404 145.323C119.44 134.824 117.581 119.731 121.791 108.861C123.133 105.379 124.905 102.08 127.066 99.0417C130.308 94.5972 134.679 91.1053 139.723 88.9297C144.768 86.754 150.302 85.9741 155.75 86.6711L156.081 86.7407Z" fill="#263238"/>
<path d="M233.289 137.012C225.964 130.486 213.673 134.282 205.461 128.924C201.212 126.156 198.745 121.332 197.21 116.492C195.676 111.652 194.897 106.588 192.985 101.871C191.073 97.1552 187.85 92.6631 183.1 90.9003C178.35 89.1375 172.073 91.1091 170.416 95.9027L208.021 168.75C209.663 170.879 211.996 172.366 214.616 172.954C217.236 173.541 219.978 173.192 222.369 171.967C224.759 170.741 226.647 168.716 227.706 166.243C228.766 163.769 228.929 161.002 228.169 158.42C230.351 157.85 232.337 156.696 233.915 155.082C235.494 153.467 236.605 151.454 237.131 149.255C237.657 147.057 237.577 144.757 236.9 142.6C236.224 140.444 234.975 138.512 233.289 137.012Z" fill="#263238"/>
<path d="M174.749 94.9132C177.936 93.5647 181.289 92.652 184.719 92.1994C185.806 92.0525 187.032 91.9829 187.904 92.6324C188.606 93.2533 189.07 94.1012 189.214 95.0292C189.654 96.854 189.738 98.7469 189.461 100.604C189.214 102.258 188.52 104.044 186.994 104.717C185.683 105.297 184.164 104.879 182.853 104.299C178.749 102.461 175.494 99.128 173.747 94.975" fill="#8D010D"/>
<path d="M176.384 95.5239C175.745 94.3264 175.002 93.188 174.163 92.122C173.652 91.314 172.861 90.7245 171.942 90.4675C171.49 90.4204 171.033 90.4821 170.609 90.6475C170.186 90.8129 169.807 91.0772 169.506 91.4185C168.914 92.1103 168.437 92.8935 168.095 93.738L172.243 101.423C173.269 99.7377 176.307 99.9542 176.923 98.0754C177.007 97.6355 177.003 97.1832 176.91 96.7451C176.818 96.3069 176.639 95.8918 176.384 95.5239Z" fill="#8D010D"/>
<path d="M175.659 108.668C169.567 89.5706 144.77 83.826 130.898 98.2532C126.51 102.815 123.789 109.34 121.522 119.167C115.268 146.228 140.027 151.23 140.027 151.23L144.006 165.325L145.787 171.1L164.802 162.974L162.605 151.485C162.605 151.485 173.993 130.486 176.368 117.312C176.847 114.416 176.603 111.446 175.659 108.668Z" fill="#CC8770"/>
<path d="M135.54 105.784C135.466 106.103 135.487 106.437 135.598 106.745C135.71 107.052 135.909 107.321 136.17 107.518C136.431 107.715 136.743 107.832 137.069 107.854C137.395 107.877 137.721 107.804 138.006 107.645C138.292 107.485 138.525 107.247 138.678 106.957C138.83 106.667 138.896 106.34 138.867 106.013C138.838 105.687 138.715 105.376 138.513 105.119C138.311 104.861 138.039 104.668 137.73 104.562C137.278 104.436 136.794 104.493 136.384 104.722C135.974 104.95 135.671 105.332 135.54 105.784Z" fill="#263238"/>
<path d="M152.226 110.423C152.127 110.638 152.074 110.871 152.071 111.108C152.067 111.344 152.113 111.579 152.206 111.797C152.298 112.015 152.436 112.21 152.608 112.372C152.781 112.533 152.986 112.656 153.209 112.733C153.432 112.81 153.669 112.84 153.904 112.819C154.139 112.799 154.368 112.73 154.574 112.615C154.781 112.501 154.962 112.345 155.104 112.156C155.247 111.968 155.349 111.751 155.403 111.521C155.502 111.306 155.555 111.072 155.558 110.836C155.562 110.599 155.515 110.364 155.423 110.147C155.33 109.929 155.193 109.733 155.02 109.572C154.848 109.41 154.643 109.287 154.42 109.21C154.197 109.133 153.96 109.104 153.725 109.124C153.489 109.144 153.261 109.214 153.054 109.328C152.848 109.442 152.667 109.599 152.524 109.787C152.382 109.976 152.28 110.192 152.226 110.423Z" fill="#263238"/>
<path d="M166.915 106.464C164.417 102.969 160.261 99.7686 155.649 100.596C155.489 100.643 155.349 100.74 155.249 100.874C155.148 101.008 155.094 101.171 155.094 101.338C155.094 101.505 155.148 101.668 155.249 101.802C155.349 101.936 155.489 102.034 155.649 102.08C157.67 102.459 159.505 102.529 161.433 103.426C163.281 104.241 164.928 105.452 166.259 106.974C166.552 107.338 167.192 106.851 166.915 106.464Z" fill="#263238"/>
<path d="M150.429 151.47C144.959 152.005 139.438 151.362 134.237 149.583C133.396 149.29 133.103 150.558 133.874 150.882C139.13 153.161 145.039 153.412 150.468 151.586C150.529 151.586 150.522 151.462 150.468 151.47H150.429Z" fill="#263238"/>
<g opacity="0.3">
<path d="M149.967 117.922C150.09 119.469 152.573 120.481 155.511 120.242C158.448 120.002 160.723 118.556 160.592 117.033C160.461 115.51 157.986 114.474 155.048 114.714C152.11 114.953 149.843 116.391 149.967 117.922Z" fill="#263238"/>
</g>
<g opacity="0.3">
<path d="M126.287 112.557C125.963 114.049 127.682 115.688 130.142 116.214C132.602 116.739 134.823 115.959 135.147 114.466C135.47 112.974 133.751 111.374 131.291 110.802C128.831 110.229 126.611 111.057 126.287 112.557Z" fill="#263238"/>
</g>
<path d="M157.5 89.269C157.068 81.8235 148.209 76.4268 141.307 77.6716C140.714 77.7876 140.899 78.6458 141.446 78.6845C145.302 78.9164 148.687 79.4576 151.794 81.8931C154.339 83.9033 155.711 86.532 157.33 89.2922C157.342 89.3091 157.358 89.3218 157.377 89.3285C157.396 89.3352 157.416 89.3355 157.436 89.3294C157.455 89.3233 157.471 89.3111 157.483 89.2946C157.495 89.2781 157.501 89.2583 157.5 89.2381V89.269Z" fill="#263238"/>
<path d="M149.357 72.0585C152.399 73.6296 154.876 76.1122 156.444 79.1608C158.013 82.2094 158.595 85.6724 158.109 89.068C157.986 89.9262 159.304 90.2973 159.428 89.4314C160.546 81.5916 156.852 74.6795 149.458 71.7879C149.319 71.7338 149.226 71.9657 149.357 72.0353V72.0585Z" fill="#263238"/>
<path d="M179.638 119.995C180.51 119.854 181.404 119.952 182.225 120.279C183.046 120.605 183.764 121.148 184.303 121.85C185.373 123.277 185.918 125.03 185.845 126.814C185.856 128.287 185.51 129.74 184.839 131.05C184.168 132.36 183.19 133.488 181.989 134.337C179.53 135.929 175.967 135.837 173.87 133.788" fill="#CC8770"/>
<path d="M181.226 128.546C181.176 127.985 180.97 127.449 180.632 126.999C180.211 126.56 179.678 126.245 179.09 126.087C178.496 125.914 177.868 125.894 177.264 126.029C176.66 126.165 176.1 126.45 175.636 126.86C175.05 127.401 175.805 128.36 176.484 127.958C176.823 127.709 177.209 127.531 177.619 127.437C178.028 127.342 178.453 127.333 178.867 127.409C179.678 127.612 180.416 128.041 180.995 128.646C181.08 128.747 181.234 128.646 181.211 128.515L181.226 128.546Z" fill="#263238"/>
<path d="M138.647 96.6294C145.649 95.2764 147.9 101.593 145.386 107.26C143.667 111.072 140.914 114.072 138.007 116.987C137.236 117.76 138.354 118.742 139.141 118.123C143.837 114.451 149.373 106.882 148.085 100.518C147.876 99.4993 147.431 98.5438 146.785 97.7289C146.14 96.9139 145.313 96.2624 144.371 95.8268C143.428 95.3912 142.397 95.1837 141.36 95.2211C140.323 95.2584 139.309 95.5396 138.4 96.0419C138.061 96.2197 138.308 96.6913 138.647 96.6294Z" fill="#263238"/>
<path d="M157.13 90.2588C156.15 99.8645 158.791 109.49 164.532 117.242C165.897 119.067 167.485 120.922 167.709 123.195C167.886 125.012 167.146 126.775 166.437 128.453C164.632 132.713 162.921 137.074 162.312 141.666C161.755 146.218 162.09 150.835 163.299 155.258C165.018 161.83 165.434 155.761 165.859 155.714C166.158 155.638 166.416 155.447 166.576 155.181C171.464 148.996 171.202 140.274 173.847 132.813C175.312 128.623 177.702 124.757 178.705 120.443C180.208 113.856 178.173 106.719 174.017 101.392C169.86 96.0652 163.769 92.47 157.292 90.568" fill="#263238"/>
<path d="M141.13 125.213C142.179 126.396 144.477 126.095 145.857 125.762C147.835 125.32 149.619 124.252 150.946 122.716C151.088 122.557 151.165 122.35 151.16 122.137C151.154 121.923 151.068 121.72 150.918 121.569C150.768 121.417 150.566 121.329 150.353 121.322C150.14 121.316 149.933 121.391 149.774 121.533C148.466 122.787 146.88 123.715 145.147 124.239C143.867 124.587 142.294 124.378 141.153 125.012C141.137 125.023 141.124 125.037 141.115 125.054C141.106 125.071 141.102 125.09 141.102 125.109C141.102 125.128 141.106 125.147 141.115 125.164C141.124 125.181 141.137 125.195 141.153 125.205L141.13 125.213Z" fill="#263238"/>
<path d="M175.15 93.6374C175.794 95.6684 176.327 97.7332 176.746 99.8227C176.869 100.596 177.995 100.248 177.88 99.5057C177.617 97.3347 176.823 95.2627 175.566 93.4751C175.42 93.2818 175.073 93.3823 175.15 93.6529V93.6374Z" fill="#263238"/>
<path d="M177.887 97.712C180.278 97.4735 182.679 97.3625 185.081 97.3795C185.222 97.3631 185.352 97.2954 185.447 97.1892C185.541 97.083 185.593 96.9457 185.593 96.8035C185.593 96.6613 185.541 96.524 185.447 96.4178C185.352 96.3116 185.222 96.2439 185.081 96.2275C182.628 96.1988 180.18 96.4583 177.787 97.0006C177.386 97.078 177.471 97.7738 177.887 97.7738V97.712Z" fill="#263238"/>
<path d="M178.435 98.9568C179.872 99.6023 181.212 100.448 182.414 101.47C183.023 101.964 183.894 101.145 183.293 100.58C181.971 99.384 180.409 98.485 178.712 97.944C178.057 97.7198 177.833 98.7171 178.435 98.9568Z" fill="#263238"/>
<path d="M21.2817 103.843C21.2817 103.843 4.31805 62.3166 8.41247 54.183C12.5069 46.0494 22.4769 27.8956 22.6697 30.8181C22.8624 33.7407 36.8806 65.9582 32.1076 76.9448C29.5862 82.7358 27.4272 82.0941 27.4272 82.0941L36.3486 95.9259L21.2817 103.843Z" fill="#CC8770"/>
<path d="M11.4891 72.1358H37.2661C39.2401 72.0663 39.5177 70.7983 40.1654 68.935C44.0208 57.902 56.2192 21.2387 56.1729 20.079C56.1267 18.9193 55.0626 17.659 54.492 16.9864C54.427 16.9069 54.3443 16.8438 54.2505 16.8021C54.1568 16.7605 54.0546 16.7415 53.9522 16.7467L29.3703 16.8704C27.8282 16.7467 26.9491 19.5455 26.8566 19.8084L8.04236 68.6721C8.04236 68.6721 7.67224 72.0972 11.4891 72.1358Z" fill="#263238"/>
<path d="M31.6219 35.9442C31.6219 35.9442 34.2589 33.8644 31.5679 31.6223C28.8768 29.3801 21.5439 27.0761 18.822 28.0889C16.1001 29.1018 16.1155 36.1839 16.1155 36.1839C16.1155 36.1839 12.7382 39.0291 15.0977 41.8898C15.0977 41.8898 11.2423 44.2093 13.4784 48.7632C13.4784 48.7632 8.77487 51.0827 14.049 55.2964C16.8018 57.5076 20.9887 58.4432 23.5101 57.9561C26.2706 57.4226 26.8258 55.9227 25.9313 53.2475C25.9313 53.2475 30.2108 54.1599 31.537 51.1755C32.6937 48.5467 29.671 47.2169 29.671 47.2169C29.671 47.2169 33.6498 46.6834 33.7809 43.8304C33.912 40.9775 29.5554 39.9647 27.3038 39.2456C25.0523 38.5266 20.5106 36.787 20.5106 36.787L22.8239 33.6943C22.8239 33.6943 27.6585 37.4519 31.6219 35.9442Z" fill="#CC8770"/>
<path d="M8.4125 68.9581C17.7194 68.9581 27.0417 69.4065 36.3486 69.1127C36.7341 69.1127 36.7341 68.5019 36.3486 68.5174C27.0417 68.8885 17.704 68.0148 8.4125 68.6643C8.37364 68.6643 8.33638 68.6797 8.3089 68.7073C8.28143 68.7348 8.26599 68.7722 8.26599 68.8112C8.26599 68.8501 8.28143 68.8875 8.3089 68.915C8.33638 68.9426 8.37364 68.9581 8.4125 68.9581Z" fill="#8D010D"/>
<path d="M37.4049 68.8498C43.2034 51.8403 48.6395 34.5989 53.9985 17.427C54.0987 17.1177 53.6438 17.0095 53.5358 17.2955C47.1438 34.1442 41.6688 51.3285 37.135 68.7725C37.1248 68.8084 37.1292 68.8469 37.1473 68.8795C37.1654 68.9121 37.1956 68.9362 37.2314 68.9465C37.2672 68.9567 37.3056 68.9523 37.3381 68.9342C37.3707 68.9161 37.3947 68.8857 37.4049 68.8498Z" fill="#8D010D"/>
<path d="M38.7003 25.5606C38.3727 25.6646 38.0224 25.6727 37.6904 25.5838C37.3584 25.495 37.0586 25.3129 36.8263 25.0591C36.594 24.8052 36.4388 24.4901 36.3789 24.1509C36.3191 23.8116 36.3571 23.4622 36.4885 23.1439C36.6199 22.8256 36.8393 22.5515 37.1207 22.3538C37.4022 22.1562 37.7341 22.0433 38.0773 22.0283C38.4206 22.0134 38.761 22.097 39.0585 22.2694C39.356 22.4418 39.5982 22.6958 39.7567 23.0015C39.9494 23.4818 39.9468 24.0188 39.7493 24.4972C39.5518 24.9756 39.1752 25.3574 38.7003 25.5606Z" fill="white"/>
<path d="M14.5502 42.7402C20.0288 43.5827 25.3091 45.4165 30.1337 48.1524C30.2911 48.2446 30.4787 48.2704 30.6551 48.224C30.8315 48.1776 30.9824 48.0628 31.0744 47.9049C31.1664 47.7471 31.1921 47.559 31.1458 47.3821C31.0996 47.2052 30.9851 47.054 30.8276 46.9617C25.8998 44.1566 20.5046 42.2729 14.9049 41.4027C14.0336 41.2712 13.6635 42.6011 14.5348 42.7402H14.5502Z" fill="#263238"/>
<path d="M15.3907 37.7071C17.5174 36.9904 19.8321 37.0784 21.8986 37.9545C22.0573 38.0412 22.2431 38.0639 22.4179 38.0179C22.5927 37.9719 22.7435 37.8607 22.8393 37.7071C22.8871 37.6306 22.9192 37.5454 22.9338 37.4564C22.9485 37.3674 22.9453 37.2763 22.9245 37.1885C22.9036 37.1008 22.8656 37.018 22.8126 36.9451C22.7596 36.8722 22.6927 36.8106 22.6157 36.7638C20.2282 35.7051 17.5356 35.5648 15.0515 36.3695C14.211 36.6479 14.5657 37.9854 15.4139 37.7071H15.3907Z" fill="#263238"/>
<path d="M12.2524 49.4822C17.2855 50.1687 22.1587 51.739 26.6484 54.1211C27.4195 54.5386 28.1289 53.348 27.3424 52.9305C22.7461 50.4738 17.752 48.8534 12.5917 48.1446C11.7281 48.0286 11.3502 49.3585 12.2216 49.4822H12.2524Z" fill="#263238"/>
<path d="M28.8691 30.648C28.6932 31.1773 28.6324 31.7383 28.691 32.2931C28.7495 32.8479 28.9259 33.3837 29.2084 33.8644C29.4958 34.3176 29.9105 34.6755 30.4004 34.8929C30.8902 35.1103 31.4333 35.1774 31.9611 35.086C32.1365 35.0354 32.2853 34.9183 32.376 34.7595C32.4667 34.6007 32.4921 34.4127 32.4469 34.2355C32.3931 34.0618 32.2758 33.915 32.1184 33.8246C31.961 33.7342 31.7753 33.707 31.5987 33.7484C31.4291 33.7484 31.7452 33.7484 31.5987 33.7484H31.3442C31.2132 33.7484 31.4368 33.7484 31.3442 33.7484L31.0975 33.6865L30.9587 33.6169L30.7428 33.4778C30.6349 33.4082 30.7968 33.5319 30.7428 33.4778L30.6426 33.3927L30.4652 33.1994C30.3496 33.0757 30.5346 33.3154 30.4652 33.1994L30.3264 33.068C30.2754 32.9897 30.2315 32.9069 30.1953 32.8206C30.1953 32.751 30.1953 32.9134 30.1953 32.8206L30.1491 32.6814C30.1186 32.5749 30.0954 32.4664 30.0797 32.3567C30.0797 32.2253 30.0797 32.4186 30.0797 32.3567C30.0797 32.2948 30.0797 32.2562 30.0797 32.2021C30.0605 31.9989 30.0605 31.7944 30.0797 31.5913C30.0797 31.398 30.0797 31.7304 30.0797 31.5372C30.0833 31.4857 30.0833 31.434 30.0797 31.3825C30.0797 31.2743 30.1337 31.166 30.1645 31.0578C30.2151 30.9676 30.245 30.8672 30.252 30.7639C30.2591 30.6606 30.243 30.5571 30.2051 30.4608C30.1671 30.3646 30.1083 30.278 30.0327 30.2075C29.9572 30.1369 29.8669 30.0841 29.7685 30.053C29.67 30.0219 29.5659 30.0131 29.4636 30.0274C29.3614 30.0418 29.2636 30.0788 29.1775 30.1358C29.0913 30.1928 29.0189 30.2684 28.9656 30.357C28.9122 30.4456 28.8793 30.545 28.8691 30.648Z" fill="#263238"/>
<path d="M29.6942 40.2043C29.349 40.8175 29.1927 41.5195 29.2451 42.2217C29.2974 42.9239 29.556 43.5948 29.9882 44.1498C30.4205 44.7048 31.007 45.119 31.6737 45.3401C32.3405 45.5612 33.0576 45.5793 33.7346 45.3922C33.9105 45.3429 34.0596 45.2257 34.1493 45.0662C34.2389 44.9067 34.2617 44.718 34.2127 44.5417C34.1636 44.3653 34.0466 44.2158 33.8876 44.1259C33.7285 44.036 33.5403 44.0131 33.3645 44.0623L33.164 44.1087H33.0715C33.1486 44.1087 33.164 44.1087 33.0715 44.1087C32.9405 44.1164 32.8092 44.1164 32.6782 44.1087H32.5009C32.3081 44.1087 32.6397 44.1087 32.4469 44.1087C32.3296 44.0877 32.2137 44.0593 32.0999 44.0237L31.8994 43.9618H31.8223C31.7027 43.9097 31.589 43.8449 31.483 43.7685L31.3288 43.668C31.4522 43.7531 31.3288 43.668 31.2826 43.6216C31.2363 43.5752 31.1052 43.4361 31.0127 43.3433C30.9922 43.3194 30.9741 43.2935 30.9587 43.266C30.9147 43.2077 30.876 43.1456 30.8431 43.0804L30.7505 42.918C30.7505 42.918 30.6734 42.7248 30.7505 42.8562C30.7505 42.7325 30.6734 42.6165 30.6426 42.4928C30.6117 42.3691 30.6426 42.3768 30.6426 42.315C30.6426 42.2299 30.6426 42.2531 30.6426 42.315C30.6461 42.2816 30.6461 42.2479 30.6426 42.2145C30.6348 42.0806 30.6348 41.9463 30.6426 41.8124C30.6426 41.7506 30.6426 41.6887 30.6426 41.6269C30.6426 41.7815 30.6426 41.5805 30.6426 41.565C30.6652 41.4419 30.6961 41.3205 30.7351 41.2016C30.7351 41.2016 30.8122 41.0238 30.7351 41.132L30.8508 40.9156C30.9395 40.7557 30.9634 40.5676 30.9175 40.3905C30.8715 40.2134 30.7593 40.0608 30.604 39.9646C30.4445 39.8756 30.257 39.8516 30.0804 39.8977C29.9037 39.9438 29.7516 40.0563 29.6556 40.212L29.6942 40.2043Z" fill="#263238"/>
<path d="M27.1804 46.0107C26.8613 46.6231 26.7116 47.3101 26.747 48.0002C26.7825 48.6902 27.0018 49.3582 27.382 49.9344C27.7623 50.5107 28.2896 50.9743 28.9092 51.2768C29.5287 51.5794 30.2178 51.7099 30.9047 51.6548C31.0869 51.6528 31.2611 51.5799 31.3906 51.4515C31.5201 51.3231 31.5947 51.1493 31.5987 50.9667C31.5967 50.7835 31.5227 50.6085 31.3927 50.4796C31.2628 50.3508 31.0875 50.2786 30.9047 50.2786H30.5269H30.3187H30.2647C30.1398 50.2576 30.0162 50.2292 29.8946 50.1935L29.725 50.1394C29.725 50.1394 29.5322 50.0544 29.6325 50.1394C29.5168 50.0853 29.4089 50.0234 29.3009 49.9616L29.1544 49.8688C29.1544 49.8688 28.9848 49.7451 29.0696 49.8147L28.7843 49.5131L28.6686 49.3894C28.6686 49.3894 28.5452 49.2193 28.6069 49.3121C28.4698 49.1283 28.3607 48.925 28.2831 48.7091C28.2391 48.5964 28.2055 48.48 28.1828 48.3611C28.1638 48.2924 28.1483 48.2227 28.1366 48.1524C28.1366 48.2606 28.1366 48.0596 28.1366 48.0441C28.1366 48.0287 28.1366 47.8045 28.1366 47.6808C28.1366 47.5571 28.1366 47.5416 28.1366 47.4643C28.1366 47.5648 28.1366 47.4643 28.1366 47.4024C28.1592 47.2717 28.1901 47.1426 28.2291 47.0158C28.2566 46.9103 28.2981 46.8088 28.3525 46.7143C28.4394 46.554 28.4622 46.3665 28.4164 46.19C28.3706 46.0134 28.2595 45.8609 28.1057 45.7633C27.9479 45.6727 27.7609 45.6479 27.5849 45.6942C27.409 45.7404 27.2582 45.8541 27.165 46.0107H27.1804Z" fill="#263238"/>
<path d="M21.9448 51.2915C21.5842 51.8327 21.3615 52.4544 21.296 53.102C21.2306 53.7496 21.3245 54.4034 21.5695 55.0062C21.8146 55.609 22.2032 56.1423 22.7015 56.5596C23.1998 56.9768 23.7925 57.2652 24.4277 57.3994C24.5997 57.4342 24.7784 57.4023 24.9279 57.3103C25.0774 57.2182 25.1866 57.0728 25.2335 56.9033C25.2804 56.7338 25.2615 56.5528 25.1807 56.3967C25.0999 56.2406 24.9631 56.1209 24.7978 56.0619C24.6753 56.0382 24.5543 56.0073 24.4354 55.9691L24.2966 55.9227C24.0807 55.8454 24.3429 55.9227 24.2272 55.9227C24.0143 55.8268 23.8126 55.7075 23.6258 55.5671C23.6875 55.6134 23.5795 55.5207 23.5641 55.5052L23.433 55.3815C23.3447 55.297 23.2623 55.2066 23.1863 55.1109L23.086 54.9563C23.0195 54.855 22.9602 54.749 22.9087 54.6393C22.7291 54.2225 22.6582 53.7668 22.7027 53.3151C22.7473 52.8633 22.9057 52.4303 23.1631 52.0569C23.2535 51.8986 23.2783 51.7111 23.2321 51.5347C23.186 51.3583 23.0726 51.2071 22.9164 51.1137C22.7581 51.025 22.5717 51.0013 22.3964 51.0474C22.221 51.0936 22.0702 51.206 21.9757 51.3611L21.9448 51.2915Z" fill="#263238"/>
<path d="M36.8343 68.6798C37.3294 69.5935 37.7323 70.5544 38.0372 71.5482C38.2377 72.0199 38.9934 71.8498 38.8083 71.3317C38.3942 70.2839 37.7358 69.3507 36.8883 68.6102C36.8421 68.5638 36.7572 68.6102 36.7958 68.6798H36.8343Z" fill="#8D010D"/>
<path d="M141.438 163.631C140.883 171.556 132.255 202.792 123.295 212.286C122.401 213.23 115.654 211.39 106.478 207.787C92.6679 202.374 73.3679 192.996 60.2827 183.123C57.1501 180.81 54.2291 178.223 51.5541 175.391C37.2661 159.82 13.1623 118.27 11.1729 103C10.9638 101.688 11.0176 100.346 11.3314 99.0544C11.6452 97.7628 12.2125 96.5468 13.0003 95.4775C18.8451 87.6531 35.724 87.4907 35.724 87.4907C37.1504 89.1839 65.7034 136.602 77.3081 145.648C94.0404 158.699 141.438 162.472 141.438 163.631Z" fill="#8D010D"/>
<path d="M35.3308 87.5836C26.7487 85.7898 14.4192 91.0087 9.34549 98.0676C9.01392 98.5315 9.67705 99.1887 10.1166 98.8408C13.9719 96.0497 17.2722 93.0266 21.7444 91.1092C26.2166 89.1917 30.6657 88.9289 35.3076 87.9469C35.3484 87.9327 35.3838 87.9061 35.4089 87.8707C35.4339 87.8354 35.4474 87.7931 35.4474 87.7498C35.4474 87.7064 35.4339 87.6642 35.4089 87.6289C35.3838 87.5935 35.3484 87.5669 35.3076 87.5526L35.3308 87.5836Z" fill="#263238"/>
<path d="M111.69 243.143C111.69 243.143 106.802 272.856 110.919 277.835C120.943 289.919 178.396 292.339 190.471 274.209C194.388 268.333 189.901 250.04 189.901 250.04L111.69 243.143Z" fill="#F3ECEC"/>
<g opacity="0.3">
<path d="M150.676 262.735L149.681 262.055C148.571 262.171 148.664 263.168 148.378 263.98C148.872 264.56 149.504 264.529 149.99 265.294C150.275 264.807 150.522 264.397 150.761 263.98H150.46C150.625 263.823 150.735 263.617 150.773 263.393C150.812 263.169 150.778 262.938 150.676 262.735Z" fill="#263238"/>
<path d="M126.603 263.98C126.534 265.387 129.425 265.627 128.986 263.98H129.88C129.741 262.465 126.441 262.078 126.603 263.98Z" fill="#263238"/>
<path d="M137.005 256.612C136.949 256.446 136.885 256.283 136.812 256.125L133.951 255.955C133.712 258.019 136.411 259.194 137.005 256.612Z" fill="#263238"/>
<path d="M120.465 257.957C120.686 258.072 120.937 258.118 121.184 258.089C121.431 258.06 121.664 257.957 121.853 257.795C122.701 257.408 121.853 256.681 121.984 256.016C122.001 255.872 121.982 255.726 121.928 255.591C121.874 255.456 121.787 255.336 121.676 255.243L119.401 255.112C120.542 255.638 119.178 257.292 120.465 257.957Z" fill="#263238"/>
<path d="M143.914 256.712C143.918 256.651 143.918 256.589 143.914 256.527L140.953 256.357C140.949 256.38 140.949 256.403 140.953 256.426C140.929 256.813 141.055 257.193 141.306 257.487C141.556 257.782 141.911 257.967 142.295 258.004C142.679 258.041 143.063 257.927 143.365 257.686C143.667 257.445 143.864 257.096 143.914 256.712Z" fill="#263238"/>
<path d="M139.156 262.001C142.533 259.349 137.236 256.72 137.56 261.088C137.963 261.578 138.531 261.902 139.156 262.001Z" fill="#263238"/>
<path d="M145.217 259.125C144.608 259.898 144.507 261.73 145.834 261.676C149.311 261.877 147.075 257.447 145.217 259.125Z" fill="#263238"/>
<path d="M133.412 259.836C132.856 258.29 131.245 258.529 130.189 259.418C130.458 262.001 132.995 262.341 133.412 259.836Z" fill="#263238"/>
<path d="M159.505 259.743L158.842 260.516C159.195 261.064 159.644 261.543 160.168 261.931C164.74 260.369 158.595 257.385 159.505 259.743Z" fill="#263238"/>
<path d="M151.038 256.936L148.124 256.766C148.21 257.077 148.391 257.354 148.641 257.557C148.891 257.76 149.199 257.879 149.52 257.897C149.842 257.916 150.161 257.834 150.433 257.661C150.705 257.489 150.917 257.235 151.038 256.936Z" fill="#263238"/>
<path d="M125.801 261.189C125.924 260.16 126.271 259.171 125.115 258.699C124.159 258.939 123.249 259.094 123.11 260.323C123.264 260.593 123.465 260.926 123.658 261.266C124.363 261.463 125.112 261.436 125.801 261.189Z" fill="#263238"/>
<path d="M167.578 258.421C167 259.148 166.19 259.612 166.036 260.47L167.694 261.854C169.822 261.05 168.526 259.704 167.578 258.421Z" fill="#263238"/>
<path d="M126.842 257.625L128.253 258.065C128.713 257.729 129.13 257.337 129.495 256.898C129.406 256.459 129.228 256.043 128.97 255.676L127.297 255.576C127.087 255.869 126.938 256.201 126.86 256.553C126.782 256.906 126.776 257.27 126.842 257.625Z" fill="#263238"/>
<path d="M157.693 257.957L157.978 257.331L155.711 257.199C155.969 257.46 156.279 257.662 156.62 257.793C156.962 257.923 157.328 257.979 157.693 257.957Z" fill="#263238"/>
<path d="M164.278 257.687L163.067 257.617C163.106 257.741 163.144 257.864 163.175 257.988C163.56 257.967 163.936 257.865 164.278 257.687Z" fill="#263238"/>
<path d="M114.767 257.022C114.852 256.72 114.921 256.395 114.983 256.133C114.852 254.749 113.811 254.973 113.125 255.661C113.556 256.032 114.104 256.488 114.767 257.022Z" fill="#263238"/>
<path d="M117.296 258.985C117.766 259.341 118.268 259.704 118.784 260.083C118.772 259.907 118.722 259.736 118.638 259.582C118.553 259.427 118.436 259.293 118.294 259.189C118.152 259.084 117.99 259.012 117.817 258.977C117.645 258.942 117.467 258.945 117.296 258.985Z" fill="#263238"/>
<path d="M154.323 260.88C154.115 260.222 153.884 259.527 153.591 258.606L151.786 260.153C151.84 261.274 153.699 261.823 154.323 260.88Z" fill="#263238"/>
<path d="M165.38 263.98C165.096 263.292 164.595 262.717 163.954 262.341C163.183 262.611 162.412 262.952 162.412 263.98C162.204 265.163 163.522 265.596 164.509 265.526C165.195 265.31 165.342 264.513 165.689 263.98H165.38Z" fill="#263238"/>
<path d="M172.243 263.98C172.143 263.624 172.05 263.261 171.958 262.905C171.657 262.715 171.314 262.601 170.96 262.573C170.605 262.544 170.249 262.603 169.922 262.743L169.552 263.98H169.259C169.621 265.766 172.428 265.975 172.837 263.98H172.243Z" fill="#263238"/>
<path d="M137.043 263.98C137.244 262.032 134.807 261.707 133.843 263.06C133.928 263.423 133.99 263.702 134.059 263.98C134.032 264.274 134.079 264.569 134.196 264.84C134.314 265.11 134.497 265.346 134.73 265.526C135.717 265.325 136.689 265.117 137.043 263.98Z" fill="#263238"/>
<path d="M157.053 265.518C157.371 265.426 157.641 265.213 157.804 264.924C157.967 264.635 158.01 264.293 157.924 263.972C157.924 263.647 157.87 263.323 157.847 263.037C156.629 262.302 155.619 262.495 155.534 263.972H155.241C155.865 264.475 156.212 265.317 157.053 265.518Z" fill="#263238"/>
<path d="M142.479 265.426C142.703 264.985 143.096 264.583 143.004 263.98H143.898C143.621 263.539 143.351 263.099 143.05 262.627H141.839L140.59 263.98H140.891C141.223 264.653 141.454 265.395 142.479 265.426Z" fill="#263238"/>
<path d="M166.807 273.49L168.411 273.575C168.311 273.463 168.191 273.373 168.056 273.308C167.921 273.244 167.775 273.206 167.626 273.198C167.477 273.19 167.328 273.212 167.188 273.262C167.047 273.312 166.918 273.39 166.807 273.49Z" fill="#263238"/>
<path d="M163.329 272.724C164.532 272.647 164.926 271.603 165.643 271.093C164.494 268.294 160.16 270.66 163.329 272.724Z" fill="#263238"/>
<path d="M168.542 266.578C166.853 265.511 166.337 266.771 165.681 268.124C167.308 269.655 169.999 269.052 168.542 266.578Z" fill="#263238"/>
<path d="M158.849 267.66C159.343 269.539 162.188 269.655 161.679 267.374C161.726 265.348 159.096 265.866 158.849 267.66Z" fill="#263238"/>
<path d="M133.327 267.428C133.126 266.609 132.509 266.353 131.785 266.183L130.381 266.686L130.335 267.018C131.106 267.397 131.947 267.792 132.772 268.101C132.903 267.837 133.093 267.607 133.327 267.428Z" fill="#263238"/>
<path d="M154.639 266.763C154.03 265.99 153.143 266.253 152.326 266.501C149.758 268.232 154.878 271.008 154.639 266.763Z" fill="#263238"/>
<path d="M174.371 268.704L174.017 266.431L173.245 266.632C173.053 268.155 173.253 268.441 174.371 268.704Z" fill="#263238"/>
<path d="M147.438 268.372C147.615 264.081 141.662 268.086 146.474 269.091L147.438 268.372Z" fill="#263238"/>
<path d="M170.061 270.173C169.035 271.828 169.968 272.26 171.41 272.693C172.451 272.802 172.274 271.58 172.505 270.799C172.207 270.462 171.814 270.222 171.379 270.111C170.943 269.999 170.484 270.021 170.061 270.173Z" fill="#263238"/>
<path d="M175.127 273.544C174.854 273.433 174.565 273.368 174.271 273.351L173.808 273.807L175.173 273.845L175.127 273.544Z" fill="#263238"/>
<path d="M137.845 268.781C138.717 268.874 139.503 268.998 140.266 268.387C140.899 266.299 138.123 265.812 137.414 267.614C137.552 268.008 137.699 268.418 137.845 268.781Z" fill="#263238"/>
<path d="M141.169 270.583C141.94 270.745 142.796 270.907 143.636 271.054C142.958 269.902 141.616 269.84 141.169 270.583Z" fill="#263238"/>
<path d="M148.185 270.861C147.939 271.379 148.509 271.503 148.633 271.828L150.653 272.09C150.816 271.675 150.943 271.245 151.031 270.807C150.213 270.25 148.856 269.98 148.185 270.861Z" fill="#263238"/>
<path d="M156.729 272.438C157.066 272.339 157.378 272.168 157.644 271.937C157.91 271.706 158.124 271.421 158.271 271.101C157.5 271.008 157.438 270.536 157.5 269.941C156.999 269.114 155.611 270.567 155.565 271.379C155.892 271.794 156.286 272.151 156.729 272.438Z" fill="#263238"/>
</g>
<path d="M195.915 222.608L195.252 207.462L190.117 163.779L163.568 160.369L141.446 163.632L114.875 181.608C114.875 181.608 109.477 192.919 107.488 201.408C105.499 209.897 104.319 228.229 104.627 229.002C104.936 229.775 104.728 244.234 105.73 247.241C113.279 269.81 180.046 255.955 191.397 257.965L194.327 254.2C199.585 250.388 195.715 227.379 195.915 222.608Z" fill="#8D010D"/>
<path d="M139.927 163.114C139.927 163.114 135.617 176.512 147.499 178.492C159.381 180.471 172.729 161.598 172.729 161.598L164.154 160.647L139.927 163.114Z" fill="#F3ECEC"/>
<path d="M111.367 184.824L111.081 184.051C110.942 183.494 110.094 183.734 110.218 184.291C110.862 186.616 111.689 188.886 112.693 191.079C113.048 191.945 114.482 191.566 114.119 190.685C113.273 188.358 112.242 186.103 111.035 183.943C110.835 184.151 110.626 184.352 110.426 184.553L111.043 185.079C111.205 185.257 111.475 185.033 111.367 184.824Z" fill="#263238"/>
<path d="M104.797 227.031C105.398 214.297 108.105 201.972 114.698 190.986C115.276 190.027 113.834 189.208 113.217 190.112C105.9 200.936 103.741 214.235 104.519 227.031C104.519 227.067 104.534 227.103 104.56 227.129C104.586 227.155 104.621 227.17 104.658 227.17C104.695 227.17 104.73 227.155 104.756 227.129C104.782 227.103 104.797 227.067 104.797 227.031Z" fill="#263238"/>
<path d="M186.361 159.503C185.459 160.129 176.723 168.704 173.862 182.613C171.002 196.522 177.988 237.461 177.988 237.461H188.135C188.135 237.461 180.37 199.893 182.838 186.131C182.838 186.131 192.237 164.683 197.103 161.892L186.361 159.503Z" fill="#263238"/>
<path d="M169.683 247.574C170.146 267.794 171.259 287.987 173.022 308.151C173.515 313.772 174.248 319.849 178.018 323.923C181.542 327.735 186.901 328.887 191.944 329.443C206.25 331 220.722 329.268 234.261 324.379C240.846 321.998 247.593 318.496 250.954 312.14C255.072 304.362 252.982 294.729 250.8 286.108L238.378 237.082C237.707 234.445 236.983 231.67 235.217 229.683C233.065 227.232 229.773 226.312 226.642 225.701C207.145 221.99 186.968 225.71 170.061 236.131" fill="#263238"/>
<path d="M240.206 285.358C240.206 285.358 240.483 294.744 236.35 295.301C235.392 296.643 234.327 297.904 233.166 299.074C231.207 301.03 228.586 303.017 226.026 303.025C226.026 303.025 220.775 306.279 215.23 305.205C215.23 305.205 209.232 306.287 204.042 304.3C201.817 303.506 199.903 302.022 198.575 300.063C198.575 300.063 194.581 300.836 193.949 293.878C193.949 293.878 190.386 295.015 190.98 289.919C191.574 284.824 192.692 283.332 192.692 283.332C192.692 283.332 190.51 283.873 191.25 281.098C191.99 278.322 195.406 274.874 195.406 274.874C195.267 274.271 196.594 258.104 198.714 258.181C200.834 258.259 205.993 269.871 205.993 269.871C207.623 269.379 209.33 269.19 211.028 269.315C211.535 269.358 212.038 269.443 212.532 269.57C212.532 269.57 213.125 269.284 213.989 268.951C215.392 268.402 217.497 267.73 218.893 267.962C218.893 267.962 219.363 254.269 221.584 254.339C223.805 254.408 228.439 262.511 230.282 267.861C230.282 267.861 237.815 270.536 237.792 275.09C237.862 275.083 243.46 280.804 240.206 285.358Z" fill="white"/>
<path d="M240.206 285.358C240.206 285.358 240.483 294.744 236.35 295.301C235.392 296.643 234.327 297.904 233.166 299.074C231.129 298.757 229.19 297.985 227.491 296.816C224.69 294.755 222.444 292.029 220.952 288.883C219.465 285.754 218.24 282.506 217.289 279.172C216.21 275.755 215.138 272.33 214.058 268.92C215.462 268.371 217.567 267.699 218.963 267.931C218.963 267.931 219.433 254.238 221.654 254.308C223.874 254.377 228.508 262.48 230.351 267.83C230.351 267.83 237.885 270.505 237.862 275.059C237.862 275.082 243.46 280.804 240.206 285.358Z" fill="#8D010D"/>
<path d="M213.395 286.819C212.282 293.506 209.019 299.645 204.104 304.3C201.879 303.506 199.964 302.022 198.637 300.063C198.637 300.063 194.643 300.836 194.01 293.878C194.01 293.878 190.448 295.015 191.042 289.919C191.636 284.824 192.754 283.332 192.754 283.332C192.754 283.332 190.571 283.873 191.312 281.098C192.052 278.322 195.468 274.874 195.468 274.874C195.329 274.271 196.655 258.104 198.776 258.181C200.896 258.259 206.055 269.871 206.055 269.871C207.685 269.379 209.392 269.19 211.09 269.315C213.533 274.802 214.334 280.883 213.395 286.819Z" fill="#8D010D"/>
<path d="M201.158 283.34C201.794 282.596 202.589 282.006 203.483 281.613C204.377 281.219 205.349 281.033 206.325 281.067C209.178 281.337 210.311 284.113 210.311 284.113C210.311 284.113 209.347 287.979 205.993 287.979C202.639 287.979 201.158 283.34 201.158 283.34Z" fill="#F3ECEC"/>
<path d="M228.285 278.577C227.383 278.199 226.409 278.029 225.433 278.08C224.457 278.131 223.506 278.401 222.648 278.871C220.227 280.417 220.458 283.394 220.458 283.394C220.458 283.394 223.065 286.433 226.033 284.878C229.002 283.324 228.285 278.577 228.285 278.577Z" fill="#F3ECEC"/>
<path d="M216.341 285.126C215.601 285.224 214.926 285.6 214.452 286.177C214.321 286.374 214.254 286.606 214.259 286.842C214.26 286.966 214.299 287.086 214.371 287.186C214.442 287.287 214.543 287.363 214.659 287.404C214.775 287.446 214.901 287.45 215.02 287.417C215.139 287.385 215.244 287.316 215.323 287.221C215.489 287.032 215.584 286.792 215.593 286.541C215.72 286.612 215.831 286.707 215.921 286.821C216.011 286.935 216.078 287.066 216.117 287.206C216.171 287.414 216.164 287.631 216.21 287.84C216.225 287.947 216.267 288.048 216.334 288.134C216.4 288.219 216.488 288.286 216.588 288.327C216.727 288.346 216.868 288.312 216.984 288.232C217.099 288.152 217.181 288.031 217.212 287.894C217.266 287.618 217.266 287.335 217.212 287.059C217.178 286.786 217.246 286.51 217.405 286.286C217.416 286.375 217.449 286.461 217.499 286.536C217.549 286.611 217.617 286.674 217.695 286.718C217.774 286.762 217.862 286.788 217.952 286.792C218.042 286.796 218.132 286.779 218.215 286.742C218.371 286.647 218.485 286.495 218.532 286.318C218.58 286.14 218.557 285.952 218.469 285.791C218.292 285.466 217.698 284.933 216.31 285.149" fill="#263238"/>
<path d="M215.948 296.716C217.007 294.347 217.456 291.749 217.251 289.162C217.251 288.806 216.665 288.806 216.696 289.162C216.903 291.652 216.481 294.154 215.47 296.437C215.323 296.762 215.801 297.04 215.948 296.716Z" fill="#263238"/>
<path d="M216.788 290.12C217.659 292.189 218.669 294.196 219.811 296.128C219.851 296.184 219.911 296.224 219.978 296.238C220.046 296.253 220.116 296.242 220.176 296.207C220.236 296.172 220.281 296.116 220.302 296.05C220.322 295.984 220.318 295.912 220.289 295.849C219.147 293.918 218.137 291.911 217.266 289.842C217.127 289.517 216.649 289.796 216.788 290.12Z" fill="#263238"/>
<path d="M197.519 294.35C202.893 293.223 208.324 292.392 213.789 291.86C214.143 291.86 214.143 291.272 213.789 291.303C208.275 291.843 202.795 292.681 197.372 293.816C197.025 293.886 197.172 294.419 197.519 294.35Z" fill="#263238"/>
<path d="M200.773 296.538L213.958 293.329C214.305 293.244 214.159 292.718 213.812 292.796L200.626 296.004C200.563 296.03 200.511 296.077 200.48 296.139C200.45 296.2 200.443 296.271 200.461 296.337C200.479 296.403 200.521 296.46 200.579 296.497C200.636 296.534 200.705 296.549 200.773 296.538Z" fill="#263238"/>
<path d="M215.87 299.105C216.212 299.433 216.626 299.674 217.08 299.809C217.533 299.943 218.012 299.967 218.477 299.878C218.92 299.786 219.336 299.592 219.691 299.311C220.047 299.031 220.334 298.672 220.528 298.262C220.674 297.937 220.204 297.659 220.05 297.984C219.899 298.336 219.665 298.645 219.366 298.884C219.068 299.123 218.715 299.284 218.339 299.353C217.963 299.422 217.577 299.396 217.213 299.279C216.85 299.161 216.521 298.955 216.256 298.679C216.202 298.639 216.135 298.619 216.068 298.624C216.001 298.629 215.937 298.658 215.89 298.706C215.843 298.755 215.815 298.819 215.811 298.886C215.808 298.954 215.829 299.021 215.87 299.074V299.105Z" fill="#263238"/>
<path d="M222.085 278.832C222.247 279.157 223.936 285.605 226.141 285.342C228.346 285.079 223.296 277.572 222.687 278.198L222.085 278.832Z" fill="#8D010D"/>
<path d="M205.422 280.742C205.422 281.098 203.556 287.507 205.584 288.412C207.612 289.316 207.126 280.27 206.263 280.51L205.422 280.742Z" fill="#8D010D"/>
<path d="M219.649 291.28L231.986 287.716C232.05 287.691 232.102 287.643 232.132 287.581C232.162 287.52 232.169 287.449 232.151 287.383C232.133 287.317 232.091 287.26 232.034 287.223C231.976 287.186 231.907 287.172 231.839 287.182L219.502 290.747C219.439 290.772 219.387 290.82 219.356 290.881C219.326 290.943 219.319 291.013 219.337 291.079C219.355 291.145 219.397 291.202 219.455 291.24C219.512 291.277 219.581 291.291 219.649 291.28Z" fill="#263238"/>
<path d="M220.782 292.656L232.264 291.528C232.611 291.489 232.618 290.94 232.264 290.971L220.782 292.108C220.435 292.108 220.435 292.695 220.782 292.656Z" fill="#263238"/>
<path d="M176.669 237.809C174.675 260.365 175.324 283.078 178.604 305.483C179.535 311.808 180.673 318.099 182.02 324.356C182.213 325.222 183.562 324.851 183.354 323.985C178.622 301.97 176.482 279.475 176.977 256.96C177.126 250.568 177.484 244.185 178.049 237.809C178.126 236.927 176.746 236.927 176.669 237.809Z" fill="#8D010D"/>
<path d="M188.012 179.095C188.012 179.095 250.291 262.596 253.753 260.029C260.616 254.895 258.742 246.112 258.858 241.156C258.974 236.2 238.81 206.952 230.637 195.88C215.138 174.958 192.175 163.369 190.063 167.134C187.95 170.899 188.012 179.095 188.012 179.095Z" fill="#8D010D"/>
<path d="M177.378 161.312C177.085 160.902 175.235 143.042 176.8 140.043C178.365 137.043 182.151 138.604 182.514 140.816L185.513 159.65C185.513 159.65 188.135 138.396 189.415 136.37C190.695 134.344 194.45 135.69 194.812 138.488C195.175 141.287 193.717 154.655 193.717 154.655L193.856 159.441C193.856 159.441 197.365 157.292 199.254 158.745C201.143 160.199 200.511 165.441 200.511 165.441C200.511 165.441 204.466 169.484 204.142 172.399C203.819 175.314 196.748 189.633 196.748 189.633L205.23 198.138L190.487 212.526L175.451 183.285C175.451 183.285 168.079 171.456 171.179 165.24C174.279 159.024 177.378 161.312 177.378 161.312Z" fill="#CC8770"/>
<path d="M181.272 170.691C184.148 170.59 187.109 170.474 189.808 169.361C191.89 168.503 193.987 167.041 194.828 164.861C195.059 164.378 195.17 163.845 195.152 163.309C195.133 162.774 194.985 162.25 194.72 161.784C194.456 161.319 194.083 160.924 193.633 160.634C193.183 160.345 192.669 160.169 192.137 160.121C189.627 159.856 187.098 159.815 184.58 159.998C181.55 160.067 178.512 160.222 175.482 160.415C174.602 160.469 174.595 161.853 175.482 161.799C178.304 161.621 181.126 161.475 183.963 161.397C185.413 161.351 186.855 161.328 188.297 161.335C189.585 161.269 190.877 161.337 192.152 161.536C193.787 161.9 194.041 163.322 193.378 164.699C192.699 165.918 191.67 166.904 190.425 167.528C187.641 169.075 184.357 169.198 181.249 169.314C180.362 169.314 180.355 170.729 181.249 170.691H181.272Z" fill="#263238"/>
<path d="M190.332 181.553C190.332 178.716 190.117 175.701 188.628 173.203C188.036 172.147 187.202 171.246 186.196 170.574C185.189 169.902 184.038 169.478 182.838 169.338C181.951 169.252 181.959 170.636 182.838 170.714C183.857 170.868 184.824 171.268 185.655 171.879C186.487 172.49 187.158 173.295 187.611 174.224C188.821 176.451 188.96 179.087 188.952 181.577C188.97 181.748 189.051 181.906 189.178 182.021C189.306 182.136 189.471 182.199 189.642 182.199C189.814 182.199 189.979 182.136 190.106 182.021C190.234 181.906 190.314 181.748 190.332 181.577V181.553Z" fill="#263238"/>
<path d="M184.827 161.103C184.938 162.24 185.444 163.301 186.256 164.102C187.068 164.903 188.135 165.392 189.27 165.484C190.405 165.576 191.537 165.265 192.467 164.606C193.397 163.947 194.066 162.98 194.357 161.876C194.388 161.705 194.353 161.529 194.26 161.383C194.167 161.236 194.023 161.129 193.856 161.084C193.689 161.038 193.511 161.057 193.357 161.136C193.203 161.216 193.084 161.35 193.024 161.513C192.826 162.302 192.36 162.997 191.705 163.478C191.05 163.959 190.249 164.195 189.439 164.145C188.629 164.096 187.861 163.764 187.27 163.207C186.678 162.65 186.3 161.903 186.199 161.096C186.192 160.916 186.117 160.745 185.99 160.617C185.863 160.49 185.693 160.415 185.513 160.407C185.331 160.407 185.157 160.48 185.028 160.609C184.899 160.738 184.827 160.913 184.827 161.096V161.103Z" fill="#263238"/>
<path d="M187.788 173.582C190.332 174.719 192.777 172.592 194.681 171.131C196.825 169.494 198.815 167.665 200.626 165.665C201.22 165.008 200.249 164.034 199.655 164.691C198.071 166.43 196.354 168.043 194.519 169.515C193.625 170.232 192.7 170.91 191.744 171.549C190.826 172.159 189.608 172.894 188.482 172.391C187.711 172.028 186.978 173.219 187.788 173.582Z" fill="#263238"/>
<path d="M199.724 164.598C196.786 168.294 193.748 172.16 192.314 176.737C191.72 178.646 191.921 181.151 194.203 181.731C196.355 182.28 198.128 180.718 199.524 179.296C201.45 177.255 203.204 175.057 204.767 172.724C205.276 171.997 204.081 171.301 203.572 172.028C202.104 174.222 200.459 176.29 198.652 178.213C197.912 179.118 196.972 179.838 195.907 180.316C194.65 180.742 193.432 180.139 193.363 178.77C193.301 177.502 193.972 176.095 194.489 174.966C194.989 173.87 195.56 172.809 196.2 171.788C197.579 169.64 199.083 167.575 200.703 165.603C201.251 164.915 200.279 163.933 199.724 164.629V164.598Z" fill="#263238"/>
<path d="M193.987 175.554C194.276 175.822 194.502 176.151 194.65 176.518C194.798 176.884 194.864 177.278 194.843 177.672C194.812 178.036 194.708 178.391 194.539 178.715C194.369 179.039 194.137 179.325 193.856 179.559C193.704 179.657 193.594 179.81 193.548 179.986C193.503 180.162 193.525 180.349 193.61 180.51C193.704 180.665 193.855 180.777 194.03 180.823C194.206 180.869 194.392 180.846 194.55 180.757C195.027 180.405 195.422 179.954 195.709 179.435C195.996 178.916 196.169 178.341 196.216 177.749C196.25 177.162 196.156 176.574 195.941 176.026C195.725 175.479 195.392 174.985 194.967 174.58C194.903 174.515 194.827 174.464 194.743 174.429C194.66 174.394 194.57 174.375 194.48 174.375C194.389 174.375 194.299 174.392 194.216 174.427C194.132 174.461 194.056 174.512 193.991 174.576C193.927 174.64 193.876 174.716 193.841 174.799C193.806 174.883 193.788 174.973 193.787 175.064C193.787 175.155 193.804 175.245 193.839 175.329C193.873 175.413 193.924 175.489 193.987 175.554Z" fill="#263238"/>
<path d="M178.257 204.609C178.257 204.609 216.595 262.99 238.255 265.178C247.145 266.083 262.289 259.38 258.966 242.285C255.643 225.191 204.22 181.809 204.22 181.809C193.918 189.293 184.542 196.877 178.257 204.609Z" fill="#8D010D"/>
<path d="M178.311 204.655C182.39 201.253 185.876 197.133 189.878 193.622C194.311 189.769 199.037 186.266 204.011 183.146C204.674 182.721 204.058 181.662 203.394 182.087C194.311 187.855 183.855 195.231 178.173 204.555C178.165 204.572 178.163 204.592 178.168 204.61C178.173 204.629 178.183 204.645 178.199 204.657C178.214 204.669 178.232 204.675 178.251 204.675C178.27 204.674 178.289 204.667 178.304 204.655H178.311Z" fill="#263238"/>
<path d="M204.713 182.381C215.508 194.256 227.714 205.645 239.558 216.492C239.657 216.57 239.781 216.608 239.907 216.6C240.032 216.592 240.151 216.538 240.24 216.449C240.329 216.36 240.382 216.241 240.39 216.116C240.398 215.99 240.36 215.865 240.283 215.766C229.773 203.797 217.644 191.705 204.96 182.056C204.767 181.909 204.559 182.218 204.713 182.381Z" fill="#263238"/>
<path d="M230.968 263.849C210.712 246.36 192.885 227.804 178.666 204.957C178.588 204.824 178.461 204.727 178.312 204.688C178.163 204.649 178.005 204.67 177.872 204.748C177.739 204.826 177.642 204.954 177.603 205.103C177.564 205.253 177.586 205.411 177.664 205.545C191.242 227.85 209.278 249.12 230.868 263.965C230.937 264.011 231.022 263.903 230.953 263.849H230.968Z" fill="#263238"/>
<path d="M143.505 162.232C143.505 162.387 141.192 172.214 148.131 172.407C159.435 172.732 168.735 160.995 168.735 160.995L163.584 160.369L143.536 162.232" fill="#CC8770"/>
<path d="M131.098 205.251C131.098 205.251 127.436 221.735 131.399 229.737C134.221 235.427 158.772 232.597 159.366 230.332C159.96 228.067 160.554 207.91 158.41 205.869C156.266 203.828 131.376 202.761 131.098 205.251Z" fill="white"/>
<g opacity="0.3">
<path d="M97.8881 198.586C99.1681 195.818 102.445 198.447 100.656 200.535C98.9522 201.323 98.1811 200.287 97.8881 198.586ZM106.879 197.442L105.838 197.898C104.859 199.545 104.504 198.841 105.977 200.604L108.29 200.743C108.591 198.656 108.467 198.354 106.879 197.442ZM88.9282 190.167C89.3024 190.133 89.6536 189.971 89.922 189.707C90.1905 189.444 90.3597 189.095 90.401 188.721C89.3369 188.605 88.2728 188.473 87.201 188.326C87.0545 188.999 87.602 189.687 88.9282 190.167ZM93.6935 190.878L92.2901 190.213L90.6554 191.272C90.2005 194.651 95.4824 193.785 93.6549 190.878H93.6935ZM99.1604 204.756C99.785 205.027 100.41 205.305 101.019 205.529C100.81 205.231 100.52 205 100.184 204.863C99.8474 204.725 99.4787 204.688 99.1218 204.756H99.1604ZM108.629 195.107C108.922 195.764 109.177 196.344 109.439 196.924L110.757 197.396C110.916 197.276 111.063 197.141 111.197 196.993L111.829 195.532C111.821 193.97 109.871 192.896 108.591 195.107H108.629ZM79.8681 188.373C80.4464 190.692 81.7341 190.36 83.1991 189.007C83.2793 188.781 83.2921 188.536 83.236 188.302C83.1798 188.069 83.0572 187.857 82.883 187.692L80.2922 187.267C80.1391 187.405 80.0208 187.576 79.9471 187.769C79.8734 187.961 79.8463 188.168 79.8681 188.373ZM86.9928 195.331C87.9798 200.264 93.3773 194.558 88.3807 194.202C88.081 194.277 87.8012 194.417 87.5614 194.612C87.3215 194.807 87.1274 195.052 86.9928 195.331ZM86.8463 192.115C86.2063 189.757 83.8854 190.174 83.4304 192.37C83.8046 193.047 84.4313 193.547 85.1731 193.762C85.5816 193.672 85.956 193.467 86.2523 193.171C86.5487 192.875 86.7548 192.501 86.8463 192.092V192.115ZM112.107 192.718C112.294 192.951 112.515 193.154 112.762 193.321L113.911 190.661C113.655 190.663 113.403 190.719 113.169 190.824C112.936 190.93 112.728 191.084 112.558 191.276C112.388 191.467 112.26 191.693 112.182 191.937C112.104 192.182 112.079 192.44 112.107 192.695V192.718ZM94.0636 199.282C93.8477 198.509 93.7243 197.658 92.5214 197.488C87.9875 198.872 92.853 202.576 94.0636 199.259V199.282ZM95.7522 200.968C94.7807 201.47 94.4029 202.089 94.3797 202.668C95.2742 203.078 96.1609 203.48 97.0399 203.867C97.3357 203.283 97.446 202.622 97.3561 201.973C96.7809 201.698 96.2422 201.353 95.7522 200.944V200.968ZM96.3306 197.055L97.6491 195.95C97.8033 194.628 96.878 194.272 95.9913 193.885C93.5084 194.458 93.894 196.878 96.3306 197.032V197.055ZM81.5644 193.885C81.1839 194.001 80.8376 194.209 80.5565 194.491C80.2753 194.772 80.068 195.12 79.9529 195.501C80.7934 195.95 81.6338 196.398 82.482 196.839C82.7158 196.616 82.8829 196.331 82.9643 196.018C83.0458 195.705 83.0384 195.375 82.943 195.065C82.8477 194.756 82.6681 194.48 82.4246 194.267C82.181 194.054 81.8831 193.914 81.5644 193.862V193.885ZM104.766 195.331C103.687 193.785 101.921 193.615 101.281 195.594C102.484 197.991 103.895 197.689 104.766 195.331ZM65.2562 184.298L62.7579 183.726C62.5242 183.969 62.3615 184.271 62.2875 184.6C63.0586 185.133 63.7757 185.659 64.5391 186.146C64.8961 185.717 65.173 185.228 65.3564 184.7C65.3256 184.577 65.2947 184.445 65.2562 184.298ZM108.66 202.761L109.1 201.748C108.952 201.871 108.835 202.026 108.759 202.202C108.683 202.378 108.649 202.57 108.66 202.761ZM104.55 202.081C102.916 200.658 101.967 200.751 101.466 202.939L102.869 204.485C103.579 203.967 105.553 203.063 104.55 202.081ZM106.917 190.484C106.532 190.461 106.15 190.574 105.84 190.804C105.529 191.034 105.308 191.366 105.217 191.742C105.125 192.118 105.168 192.515 105.338 192.863C105.508 193.211 105.794 193.488 106.146 193.646C107.604 194.233 109.231 190.599 106.917 190.499V190.484ZM70.6768 185.991C71.1311 186.039 71.5889 185.944 71.9877 185.721C71.0778 185.543 70.1911 185.357 69.3352 185.18C69.4508 185.705 69.8595 186.1 70.6923 186.007L70.6768 185.991ZM96.5233 189.857C96.713 189.696 96.8791 189.508 97.0168 189.301C96.2457 189.254 95.4053 189.192 94.5879 189.123C94.8473 189.371 95.1533 189.565 95.4882 189.694C95.8231 189.823 96.1802 189.884 96.5387 189.873L96.5233 189.857ZM76.5216 192.463C77.7939 194.651 79.2743 193.623 79.5057 191.434C78.7577 189.981 76.2132 190.8 76.537 192.478L76.5216 192.463ZM68.7106 187.36C68.5892 187.127 68.4091 186.931 68.1883 186.79C67.9675 186.649 67.7137 186.569 67.4523 186.557C67.1909 186.546 66.9309 186.603 66.6985 186.723C66.466 186.844 66.2691 187.023 66.1275 187.244C66.8986 187.731 67.6157 188.226 68.379 188.705C68.2788 188.21 68.6335 187.862 68.726 187.375L68.7106 187.36ZM73.8537 187.159C72.5351 187.36 72.8975 188.574 73.3756 189.478C76.7067 190.329 77.1076 186.208 73.8691 187.174L73.8537 187.159ZM107.434 205.591C105.892 204.748 103.98 206.047 105.614 207.454L106.478 207.802L107.434 205.591ZM103.663 189.919C103.849 189.753 104.012 189.563 104.149 189.355C103.64 189.355 103.124 189.401 102.607 189.409L103.663 189.919ZM85.4275 197.651C85.158 197.696 84.8975 197.784 84.6565 197.914L86.6613 198.926C86.6577 198.689 86.6161 198.454 86.5379 198.231L85.4275 197.651ZM99.5074 193.375C101.558 193.375 101.35 190.344 99.3609 190.855C97.5411 191.419 98.2814 192.617 99.5074 193.414V193.375ZM110.102 190.058C110.436 189.842 110.721 189.557 110.937 189.223C111.154 188.888 111.298 188.512 111.359 188.118C110.671 188.363 109.968 188.565 109.254 188.721C109.255 189.006 109.334 189.286 109.484 189.529C109.634 189.772 109.848 189.968 110.102 190.097V190.058Z" fill="#263238"/>
</g>
<path d="M57.9927 13.6385C61.3777 9.47889 65.0866 5.60536 68.433 1.40711L67.153 0.417463C64.4729 5.53722 63.0781 11.235 63.0895 17.0172C63.0895 17.4656 63.5136 17.9991 63.9993 17.9295C70.6772 17.0423 77.4128 16.6675 84.1476 16.8084L83.4844 15.1848C79.0353 18.7104 74.4012 22.0118 69.9752 25.5761C68.8648 26.4729 66.1892 28.1275 66.1198 29.8517C66.0504 31.5758 69.2041 33.8875 70.1911 34.9932C73.3216 38.5574 76.5293 42.0521 79.6291 45.6396L80.3307 43.9464C74.821 43.3778 69.5499 41.3968 65.0249 38.194C63.8528 37.4209 62.7116 39.3306 63.9068 40.096C68.8212 43.3432 74.4503 45.3414 80.3076 45.9179C81.2329 46.003 81.5182 44.8046 81.0093 44.217C78.696 41.5418 76.3057 38.9131 73.9385 36.2689C73.0363 35.256 68.3945 31.2975 68.3251 30.0836C68.2017 27.9961 74.4937 24.4241 76.19 23.1252C79.0662 20.9139 81.9577 18.7104 84.7953 16.4528C85.4661 15.9116 84.8724 14.8601 84.1321 14.8446C77.3156 14.7242 70.5 15.1274 63.7449 16.0508L64.9015 16.9322C64.8444 11.4566 66.0922 6.04647 68.541 1.15196C68.6494 0.965362 68.6794 0.743234 68.6244 0.53444C68.5695 0.325647 68.4341 0.147292 68.248 0.038613C68.0619 -0.070066 67.8403 -0.100168 67.6321 -0.0450695C67.4239 0.0100288 67.246 0.145815 67.1376 0.332414C64.0071 4.6853 60.2905 8.56656 57.2139 12.9658C56.8977 13.4143 57.6225 13.9864 57.9849 13.5534L57.9927 13.6385Z" fill="#263238"/>
<path d="M208.699 90.7148C208.699 90.7148 215.346 121.355 218.562 122.716C221.777 124.077 252.659 120.551 253.599 117.605C254.902 113.562 245.888 86.1454 242.326 84.9316C238.44 83.6095 209.656 87.367 208.699 90.7148Z" fill="white"/>
<path d="M221.877 123.566C220.69 123.635 219.499 123.52 218.346 123.226C215.038 121.827 209.278 95.9956 208.16 90.8309V90.6917L208.198 90.5603C208.345 90.0422 208.831 89.5861 209.74 89.1222C215.315 86.1842 238.864 83.1534 242.557 84.4059C246.714 85.8208 255.427 113.894 254.178 117.775C254.031 118.239 253.561 118.641 252.689 119.043C247.662 121.324 229.812 123.566 221.877 123.566ZM209.278 90.7767C212.47 105.467 216.873 121.402 218.777 122.206C221.206 123.242 245.248 120.922 251.934 118.154C252.998 117.714 253.113 117.443 253.113 117.435C254.417 113.392 245.225 86.5089 242.195 85.4574C239.165 84.4059 215.978 87.081 210.234 90.0964C209.867 90.2457 209.54 90.4786 209.278 90.7767Z" fill="#8D010D"/>
<path d="M212.701 93.1195C212.701 93.1195 217.328 114.575 219.518 116.492C221.708 118.41 249.744 115.719 250.361 112.626C250.978 109.534 243.745 90.0887 241.779 88.9908C239.812 87.8929 212.3 91.2871 212.701 93.1195Z" fill="#8D010D"/>
<path d="M223.219 117.242C223.219 117.242 223.805 109.704 232.156 107.353C240.506 105.003 245.14 115.031 245.14 115.031C245.14 115.031 232.78 117.659 223.219 117.242Z" fill="white"/>
<path d="M238.355 100.735C237.723 104.794 233.235 106.673 229.187 106.039C225.139 105.405 223.072 102.498 223.705 98.4387C223.837 97.4572 224.164 96.5122 224.666 95.6591C225.168 94.806 225.834 94.0619 226.627 93.4706C227.419 92.8793 228.321 92.4527 229.281 92.2157C230.24 91.9788 231.236 91.9363 232.212 92.0908C233.188 92.2452 234.123 92.5936 234.962 93.1153C235.802 93.637 236.529 94.3216 237.102 95.129C237.674 95.9363 238.079 96.8502 238.295 97.8168C238.51 98.7835 238.53 99.7835 238.355 100.758V100.735Z" fill="white"/>
<path d="M222.363 117.08C226.377 117.189 230.394 117.016 234.384 116.562C239.089 116.201 243.742 115.338 248.263 113.987C248.765 113.825 248.549 113.021 248.04 113.214C243.47 114.576 238.768 115.441 234.014 115.796C230.148 116.219 226.258 116.379 222.371 116.276C221.839 116.276 221.839 117.087 222.371 117.103L222.363 117.08Z" fill="#8D010D"/>
<path d="M205.854 47.8432C205.854 47.8432 200.063 74.5404 197.264 75.7311C194.465 76.9217 167.555 73.8445 166.73 71.2777C165.604 67.7521 173.454 43.8614 176.553 42.8099C179.915 41.6579 205.029 44.9284 205.854 47.8432Z" fill="white"/>
<path d="M194.388 76.5351C187.449 76.5351 171.888 74.5868 167.547 72.592C166.776 72.2364 166.344 71.873 166.205 71.4478C165.118 68.0536 172.744 43.5212 176.376 42.2842C179.707 41.1476 199.994 43.7454 205.029 46.3896C205.8 46.8071 206.255 47.2247 206.386 47.6886L206.425 47.8277V47.9592C205.453 52.4667 200.426 75.0197 197.511 76.2413C196.491 76.4984 195.438 76.5975 194.388 76.5351ZM178.967 43.1346C178.208 43.0978 177.448 43.1655 176.708 43.3357C174.07 44.2325 166.105 67.5897 167.231 71.1076C168.218 73.025 193.833 76.5738 197.025 75.2208C198.568 74.5481 202.423 60.8477 205.253 47.9128C205.035 47.6813 204.773 47.4971 204.482 47.3716C200.272 45.1371 185.074 43.1346 178.99 43.1346H178.967Z" fill="#8D010D"/>
<path d="M202.369 49.9772C202.369 49.9772 198.329 68.6645 196.432 70.3345C194.535 72.0045 170.092 69.6464 169.583 66.979C169.074 64.3116 175.35 47.333 177.062 46.382C178.774 45.431 202.724 48.3458 202.369 49.9772Z" fill="#F3ECEC"/>
<path d="M193.209 70.9606C192.926 68.9059 192.031 66.9846 190.641 65.4479C189.252 63.9113 187.432 62.8307 185.421 62.3476C178.149 60.3065 174.109 69.0277 174.109 69.0277C174.109 69.0277 184.873 71.324 193.209 70.9606Z" fill="white"/>
<path d="M180.015 56.5722C180.563 60.1132 184.48 61.7523 188.004 61.2111C191.528 60.6699 193.332 58.1185 192.784 54.5851C192.513 52.8944 191.585 51.3803 190.203 50.3738C188.821 49.3674 187.098 48.9503 185.41 49.214C183.723 49.4776 182.208 50.4004 181.197 51.7807C180.186 53.161 179.761 54.8864 180.015 56.5799V56.5722Z" fill="white"/>
<path d="M193.956 70.0793C190.568 70.1723 187.178 70.0328 183.809 69.6618C179.671 69.3561 175.579 68.6017 171.603 67.4119C171.094 67.2495 170.878 68.0459 171.379 68.185C175.322 69.3598 179.377 70.1114 183.478 70.4272C186.956 70.8224 190.457 70.9748 193.956 70.8833C194.481 70.8833 194.489 70.0329 193.956 70.0483V70.0793Z" fill="#8D010D"/>
</g>
<defs>
<clipPath id="clip0_11_66375">
<rect width="315" height="330" fill="white"/>
</clipPath>
</defs>
</svg>
